<?xml version="1.0" standalone="no"?>
<!DOCTYPE svg PUBLIC "-//W3C//DTD SVG 20010904//EN"
 "http://www.w3.org/TR/2001/REC-SVG-20010904/DTD/svg10.dtd">
<svg version="1.0" xmlns="http://www.w3.org/2000/svg"
 width="242.000000pt" height="242.000000pt" viewBox="0 0 242.000000 242.000000"
 preserveAspectRatio="xMidYMid meet">
<metadata>
Created by potrace 1.14, written by Peter Selinger 2001-2017
</metadata>
<g transform="translate(0.000000,242.000000) scale(0.100000,-0.100000)"
fill="#000000" stroke="none">
<path d="M1190 2089 c-88 -7 -160 -22 -220 -47 -19 -8 -35 -13 -35 -12 0 1
-27 -14 -59 -33 -62 -38 -146 -105 -146 -117 0 -7 28 -19 55 -25 6 -1 17 -5
25 -8 73 -28 138 -50 150 -51 8 -1 25 -8 38 -14 12 -7 22 -10 22 -6 0 3 7 1
15 -6 8 -7 21 -10 29 -7 8 3 16 2 18 -2 3 -7 394 -146 438 -156 8 -2 15 -4 15
-5 0 0 37 -13 83 -29 76 -26 84 -27 100 -12 19 18 68 111 64 124 -1 4 2 7 6 7
5 0 14 16 22 35 8 19 18 35 22 35 5 0 7 4 3 9 -3 5 -1 12 5 16 6 4 8 10 5 15
-3 4 2 11 11 14 8 3 13 10 10 15 -4 5 -2 11 4 13 5 1 12 17 16 34 6 29 3 33
-38 53 -24 11 -50 21 -56 21 -7 0 -12 5 -12 10 0 6 -6 10 -12 10 -7 0 -44 13
-83 29 -90 36 -252 78 -335 87 -36 3 -67 7 -70 8 -3 1 -43 -1 -90 -5z"/>
<path d="M601 1606 c-16 -19 -13 -183 4 -248 17 -64 56 -128 109 -180 41 -40
116 -88 138 -88 5 0 60 -17 121 -39 62 -21 135 -45 162 -54 28 -8 115 -39 195
-67 80 -28 154 -53 165 -55 11 -3 29 -9 40 -14 18 -8 118 -42 138 -47 4 -1 9
-3 12 -4 3 -1 8 -3 13 -4 18 -5 59 -18 77 -26 27 -12 126 -43 147 -47 13 -2
18 7 23 40 11 72 -6 239 -27 265 -6 6 -8 12 -4 12 16 0 -49 98 -89 136 -37 34
-126 76 -167 79 -3 0 -10 3 -14 8 -4 4 -13 7 -20 7 -7 0 -25 5 -41 12 -15 6
-39 13 -53 15 -13 2 -29 8 -35 12 -5 5 -25 12 -42 16 -18 3 -33 10 -33 15 0 4
-9 6 -20 3 -11 -3 -20 0 -20 6 0 6 -3 10 -7 9 -7 -3 -82 19 -143 40 -8 3 -18
6 -22 6 -3 1 -10 4 -14 9 -4 4 -16 7 -26 7 -10 0 -18 5 -18 11 0 5 -4 8 -9 5
-5 -3 -39 5 -75 19 -36 14 -67 25 -69 24 -1 0 -9 2 -17 5 -47 18 -227 78 -240
81 -8 2 -32 11 -52 19 -21 9 -38 13 -38 9 0 -4 -5 -2 -12 5 -16 16 -23 15 -37
-2z"/>
<path d="M628 731 c-31 -64 -60 -125 -64 -136 -4 -11 -13 -27 -19 -35 -7 -8
-15 -27 -19 -42 -6 -25 -1 -29 72 -65 72 -37 181 -80 220 -88 9 -2 37 -10 62
-18 25 -8 61 -18 80 -21 19 -3 46 -8 60 -11 137 -29 443 -26 500 5 8 4 17 8
20 7 12 -2 100 26 100 33 0 4 6 7 13 7 11 0 53 25 121 73 27 19 27 44 1 48
-11 2 -27 6 -35 9 -8 3 -19 7 -25 9 -5 1 -23 7 -40 14 -16 6 -31 11 -32 11 -2
0 -22 7 -45 15 -24 9 -50 17 -58 19 -8 3 -99 33 -202 68 -104 36 -188 62 -188
60 0 -3 -6 -1 -12 4 -7 6 -65 27 -128 48 -63 21 -120 41 -126 46 -6 5 -13 6
-17 3 -3 -3 -16 0 -29 7 -12 7 -27 14 -33 14 -5 1 -22 6 -36 12 -14 6 -39 13
-55 16 -28 4 -31 1 -86 -112z"/>
</g>
</svg>
